<?xml version="1.0" encoding="utf-8"?>
<!-- Generator: Adobe Illustrator 24.3.0, SVG Export Plug-In . SVG Version: 6.00 Build 0)  -->
<svg version="1.1" id="レイヤー_1" xmlns="http://www.w3.org/2000/svg" xmlns:xlink="http://www.w3.org/1999/xlink" x="0px"
	 y="0px" viewBox="0 0 20 20" style="enable-background:new 0 0 20 20;" xml:space="preserve">
<style type="text/css">
	.st0{fill:#B3B3B3;}
</style>
<g>
	<path class="st0" d="M2.5,0.5C2.22,0.5,2,0.73,2,1v18c0,0.27,0.22,0.5,0.5,0.5h15c0.27,0,0.5-0.23,0.5-0.5V1
		c0-0.27-0.23-0.5-0.5-0.5H2.5z M16,17.5c0,0.27-0.23,0.5-0.5,0.5h-11C4.22,18,4,17.77,4,17.5v-15C4,2.22,4.22,2,4.5,2h11
		C15.77,2,16,2.22,16,2.5V17.5z"/>
</g>
<polygon class="st0" points="8.6,17 6.73,17 11.4,3 13.27,3 "/>
</svg>
